<?xml version="1.0" encoding="UTF-8" standalone="no"?>
<svg
   version="1.1"
   width="458"
   height="95.999985"
   style="clip-rule:evenodd;fill-rule:evenodd;image-rendering:optimizeQuality;shape-rendering:geometricPrecision;text-rendering:geometricPrecision"
   id="svg358"
   xmlns="http://www.w3.org/2000/svg"
   xmlns:svg="http://www.w3.org/2000/svg">
  <defs
     id="defs362" />
  <g
     id="g264"
     transform="translate(-20.5,-201.5)">
    <path
       style="opacity:1"
       fill="#1a78ff"
       d="m 20.5,201.5 c 152.667,0 305.333,0 458,0 0,32 0,64 0,96 -152.667,0 -305.333,0 -458,0 0,-32 0,-64 0,-96 z"
       id="path262" />
  </g>
  <g
     id="g268"
     transform="translate(-20.5,-201.5)">
    <path
       style="opacity:1"
       fill="#fdfdff"
       d="m 23.5,204.5 c 151,0 302,0 453,0 0,30 0,60 0,90 -151,0 -302,0 -453,0 0,-30 0,-60 0,-90 z"
       id="path266" />
  </g>
  <g
     id="g272"
     transform="translate(-20.5,-201.5)">
    <path
       style="opacity:1"
       fill="#1977ff"
       d="m 29.5,210.5 c 55,0 110,0 165,0 0,26 0,52 0,78 -55,0 -110,0 -165,0 0,-26 0,-52 0,-78 z"
       id="path270" />
  </g>
  <g
     id="g276"
     transform="translate(-20.5,-201.5)">
    <path
       style="opacity:1"
       fill="#4f96ff"
       d="m 116.5,235.5 c 6.813,-0.991 13.813,-1.325 21,-1 0.268,1.599 -0.066,2.932 -1,4 0,-1 0,-2 0,-3 -6.667,0 -13.333,0 -20,0 z"
       id="path274" />
  </g>
  <g
     id="g280"
     transform="translate(-20.5,-201.5)">
    <path
       style="opacity:1"
       fill="#f2f7ff"
       d="m 65.5,235.5 c 1.6439,-0.214 3.1439,0.12 4.5,1 3.2751,8.33 6.4418,16.663 9.5,25 -3.1557,-0.029 -4.8223,-1.696 -5,-5 -4.2953,-1.161 -8.6287,-1.328 -13,-0.5 -1.3613,1.584 -2.028,3.418 -2,5.5 -1.4778,0.262 -2.8112,-0.071 -4,-1 3.7313,-8.198 7.0646,-16.531 10,-25 z"
       id="path278" />
  </g>
  <g
     id="g284"
     transform="translate(-20.5,-201.5)">
    <path
       style="opacity:1"
       fill="#ebf2ff"
       d="m 87.5,235.5 c 2.4032,-0.107 4.2365,0.893 5.5,3 3.6667,5.333 7.333,10.667 11,16 0.5,-6.325 0.666,-12.658 0.5,-19 1.333,0 2.667,0 4,0 0,8.667 0,17.333 0,26 -1.644,0.214 -3.144,-0.12 -4.5,-1 -4.3333,-6.333 -8.6667,-12.667 -13,-19 -0.4996,6.658 -0.6663,13.325 -0.5,20 -1,0 -2,0 -3,0 0,-8.667 0,-17.333 0,-26 z"
       id="path282" />
  </g>
  <g
     id="g288"
     transform="translate(-20.5,-201.5)">
    <path
       style="opacity:1"
       fill="#e7f0ff"
       d="m 116.5,235.5 c 6.667,0 13.333,0 20,0 0,1 0,2 0,3 -2.667,0 -5.333,0 -8,0 0,7.667 0,15.333 0,23 -1.333,0 -2.667,0 -4,0 0,-7.667 0,-15.333 0,-23 -3,0 -6,0 -9,0 -0.237,-1.291 0.096,-2.291 1,-3 z"
       id="path286" />
  </g>
  <g
     id="g292"
     transform="translate(-20.5,-201.5)">
    <path
       style="opacity:1"
       fill="#f3f8ff"
       d="m 145.5,235.5 c 5.459,-0.397 10.792,0.103 16,1.5 7.641,6.933 7.975,14.266 1,22 -5.4,2.278 -11.066,3.111 -17,2.5 0,-8.667 0,-17.333 0,-26 z"
       id="path290" />
  </g>
  <g
     id="g296"
     transform="translate(-20.5,-201.5)">
    <path
       style="opacity:1"
       fill="#277dff"
       d="m 209.5,235.5 c 2.667,0 5.333,0 8,0 0,8.667 0,17.333 0,26 -2.667,0 -5.333,0 -8,0 0,-8.667 0,-17.333 0,-26 z"
       id="path294" />
  </g>
  <g
     id="g300"
     transform="translate(-20.5,-201.5)">
    <path
       style="opacity:1"
       fill="#287cff"
       d="m 222.5,235.5 c 2.357,-0.163 4.69,0.003 7,0.5 2.711,3.922 5.545,7.756 8.5,11.5 0.499,-3.986 0.666,-7.986 0.5,-12 2.667,0 5.333,0 8,0 0,8.667 0,17.333 0,26 -2.424,0.308 -4.757,-0.026 -7,-1 -2.642,-3.809 -5.475,-7.476 -8.5,-11 -0.499,3.986 -0.666,7.986 -0.5,12 -2.667,0 -5.333,0 -8,0 0,-8.667 0,-17.333 0,-26 z"
       id="path298" />
  </g>
  <g
     id="g304"
     transform="translate(-20.5,-201.5)">
    <path
       style="opacity:1"
       fill="#1877ff"
       d="m 252.5,235.5 c 2.333,0 4.667,0 7,0 0,6.333 0,12.667 0,19 3.667,0 7.333,0 11,0 0,2.333 0,4.667 0,7 -6,0 -12,0 -18,0 0,-8.667 0,-17.333 0,-26 z"
       id="path302" />
  </g>
  <g
     id="g308"
     transform="translate(-20.5,-201.5)">
    <path
       style="opacity:1"
       fill="#1676ff"
       d="m 274.5,235.5 c 2.333,0 4.667,0 7,0 0,8.667 0,17.333 0,26 -2.333,0 -4.667,0 -7,0 0,-8.667 0,-17.333 0,-26 z"
       id="path306" />
  </g>
  <g
     id="g312"
     transform="translate(-20.5,-201.5)">
    <path
       style="opacity:1"
       fill="#1a77ff"
       d="m 287.5,235.5 c 2.027,-0.162 4.027,0.005 6,0.5 3.167,3.833 6.333,7.667 9.5,11.5 0.499,-3.986 0.666,-7.986 0.5,-12 2.333,0 4.667,0 7,0 0,8.667 0,17.333 0,26 -2.027,0.162 -4.027,-0.005 -6,-0.5 -3.288,-4.077 -6.455,-8.244 -9.5,-12.5 -0.499,4.321 -0.666,8.654 -0.5,13 -2.333,0 -4.667,0 -7,0 0,-8.667 0,-17.333 0,-26 z"
       id="path310" />
  </g>
  <g
     id="g316"
     transform="translate(-20.5,-201.5)">
    <path
       style="opacity:1"
       fill="#1c78ff"
       d="m 316.5,235.5 c 6,0 12,0 18,0 0,2 0,4 0,6 -3.667,0 -7.333,0 -11,0 0,1.333 0,2.667 0,4 3.333,0 6.667,0 10,0 0,2 0,4 0,6 -3.333,0 -6.667,0 -10,0 0,1.333 0,2.667 0,4 3.667,0 7.333,0 11,0 0,2 0,4 0,6 -6,0 -12,0 -18,0 0,-8.667 0,-17.333 0,-26 z"
       id="path314" />
  </g>
  <g
     id="g320"
     transform="translate(-20.5,-201.5)">
    <path
       style="opacity:1"
       fill="#277dff"
       d="m 347.5,235.5 c 2.667,0 5.333,0 8,0 0,8.667 0,17.333 0,26 -2.667,0 -5.333,0 -8,0 0,-8.667 0,-17.333 0,-26 z"
       id="path318" />
  </g>
  <g
     id="g324"
     transform="translate(-20.5,-201.5)">
    <path
       style="opacity:1"
       fill="#1977ff"
       d="m 375.5,246.5 c 0.283,0.789 0.783,1.456 1.5,2 0.499,-4.321 0.666,-8.654 0.5,-13 2.333,0 4.667,0 7,0 0,8.667 0,17.333 0,26 -2.027,0.162 -4.027,-0.005 -6,-0.5 -3.55,-3.883 -6.717,-8.049 -9.5,-12.5 -0.499,4.321 -0.666,8.654 -0.5,13 -2.333,0 -4.667,0 -7,0 0,-8.667 0,-17.333 0,-26 2.027,-0.162 4.027,0.005 6,0.5 2.883,3.376 5.549,6.876 8,10.5 z"
       id="path322" />
  </g>
  <g
     id="g328"
     transform="translate(-20.5,-201.5)">
    <path
       style="opacity:1"
       fill="#a9ccff"
       d="m 377.5,235.5 c 0.166,4.346 -10e-4,8.679 -0.5,13 -0.717,-0.544 -1.217,-1.211 -1.5,-2 0.667,-3.667 1.333,-7.333 2,-11 z"
       id="path326" />
  </g>
  <g
     id="g332"
     transform="translate(-20.5,-201.5)">
    <path
       style="opacity:1"
       fill="#1c78ff"
       d="m 390.5,235.5 c 6.159,-0.466 12.159,0.201 18,2 3.382,4.272 3.882,8.938 1.5,14 -0.903,1.201 -2.069,2.035 -3.5,2.5 -2.982,0.498 -5.982,0.665 -9,0.5 0,2.333 0,4.667 0,7 -2.333,0 -4.667,0 -7,0 0,-8.667 0,-17.333 0,-26 z"
       id="path330" />
  </g>
  <g
     id="g336"
     transform="translate(-20.5,-201.5)">
    <path
       style="opacity:1"
       fill="#2c7dff"
       d="m 415.5,235.5 c 2.667,0 5.333,0 8,0 -0.166,6.009 10e-4,12.009 0.5,18 2,1.333 4,1.333 6,0 0.499,-5.991 0.666,-11.991 0.5,-18 2.667,0 5.333,0 8,0 0.166,6.342 0,12.675 -0.5,19 -1.711,5.358 -5.378,7.691 -11,7 -5.622,0.691 -9.289,-1.642 -11,-7 -0.5,-6.325 -0.666,-12.658 -0.5,-19 z"
       id="path334" />
  </g>
  <g
     id="g340"
     transform="translate(-20.5,-201.5)">
    <path
       style="opacity:1"
       fill="#1877ff"
       d="m 442.5,235.5 c 7.667,0 15.333,0 23,0 0,2.333 0,4.667 0,7 -2.667,0 -5.333,0 -8,0 0,6.333 0,12.667 0,19 -2.333,0 -4.667,0 -7,0 0,-6.667 0,-13.333 0,-20 -2.667,0 -5.333,0 -8,0 0,-2 0,-4 0,-6 z"
       id="path338" />
  </g>
  <g
     id="g344"
     transform="translate(-20.5,-201.5)">
    <path
       style="opacity:1"
       fill="#2179ff"
       d="m 148.5,238.5 c 4.58,-0.387 8.914,0.447 13,2.5 4.447,5.981 3.781,11.314 -2,16 -3.56,1.237 -7.227,1.737 -11,1.5 0,-6.667 0,-13.333 0,-20 z"
       id="path342" />
  </g>
  <g
     id="g348"
     transform="translate(-20.5,-201.5)">
    <path
       style="opacity:1"
       fill="#2d7eff"
       d="m 67.5,240.5 c 1.8913,3.457 3.558,7.124 5,11 -3.2844,1.157 -6.6177,1.324 -10,0.5 1.7668,-3.804 3.4335,-7.637 5,-11.5 z"
       id="path346" />
  </g>
  <g
     id="g352"
     transform="translate(-20.5,-201.5)">
    <path
       style="opacity:1"
       fill="#f4f8ff"
       d="m 397.5,241.5 c 3.385,-0.71 5.719,0.456 7,3.5 -1.281,3.044 -3.615,4.21 -7,3.5 0,-2.333 0,-4.667 0,-7 z"
       id="path350" />
  </g>
  <g
     id="g356"
     transform="translate(-20.5,-201.5)">
    <path
       style="opacity:1"
       fill="#86b5ff"
       d="m 442.5,235.5 c 0,2 0,4 0,6 2.667,0 5.333,0 8,0 0,6.667 0,13.333 0,20 -0.99,-6.145 -1.323,-12.478 -1,-19 -2.667,0 -5.333,0 -8,0 -0.302,-2.559 0.032,-4.893 1,-7 z"
       id="path354" />
  </g>
</svg>
